<svg xmlns="http://www.w3.org/2000/svg" width="512" height="512" viewBox="0 0 512 512">
  <defs>
    <linearGradient id="g" x1="15%" y1="5%" x2="85%" y2="95%">
      <stop offset="0%" stop-color="#6366f1"/>
      <stop offset="50%" stop-color="#8b5cf6"/>
      <stop offset="100%" stop-color="#3b82f6"/>
    </linearGradient>
    <filter id="s" x="-20%" y="-20%" width="140%" height="140%" filterUnits="objectBoundingBox">
      <feGaussianBlur in="SourceAlpha" stdDeviation="8" result="blur"/>
      <feOffset dy="4" result="offset"/>
      <feComposite in="offset" in2="blur" operator="out" result="shadow"/>
      <feColorMatrix in="shadow" type="matrix" values="0 0 0 0 0.25 0 0 0 0 0.32 0 0 0 0 0.62 0 0 0 0.35 0"/>
    </filter>
  </defs>
  <rect x="32" y="32" width="448" height="448" rx="96" fill="url(#g)"/>
  <g filter="url(#s)">
    <path fill="#fff" fill-opacity="0.15" d="M256 80c-97.2 0-176 78.8-176 176s78.8 176 176 176 176-78.8 176-176S353.2 80 256 80zm0 32c79.5 0 144 64.5 144 144 0 79.5-64.5 144-144 144-79.5 0-144-64.5-144-144 0-79.5 64.5-144 144-144z"/>
  </g>
  <path fill="#fff" d="M177 336c0-5.9 3.2-11.3 8.4-14.2 34.8-19.5 54.6-56.6 54.6-93.8v-6.6c-11.8 6.8-25.3 10.6-39 10.6-7.2 0-13-5.8-13-13s5.8-13 13-13c27.6 0 50-22.4 50-50 0-7.2 5.8-13 13-13s13 5.8 13 13c0 47.6-9.1 89.4-26.9 119.7-13 22-30.3 38.9-51.5 50.8h107.3c7.2 0 13 5.8 13 13s-5.8 13-13 13H190c-7.2 0-13-5.8-13-13zm158-14c0 7.2-5.8 13-13 13s-13-5.8-13-13V190.5l-11.8 11.8c-5.1 5.1-13.3 5.1-18.4 0s-5.1-13.3 0-18.4l33-33c5.1-5.1 13.3-5.1 18.4 0l33 33c5.1 5.1 5.1 13.3 0 18.4s-13.3 5.1-18.4 0L335 190.5V322z"/>
</svg>
